<svg xmlns="http://www.w3.org/2000/svg" width="141" height="42" viewBox="0 0 141 42">
  <g id="Сгруппировать_4" data-name="Сгруппировать 4" transform="translate(-2489.449 -1720.045)">
    <path id="Контур_19" data-name="Контур 19" d="M2629.113,1741.792l1.336-.187c-.421-1.056-1.984-.244-2.588-1.387.689-.018,1.273-.018,1.855-.059a3.1,3.1,0,0,0,.683-.243c-.532-.4-.9-.926-1.292-.939-1.592-.052-3.145-.342-4.714-.542-2.177-.277-4.365-.467-6.551-.673-1.834-.173-3.669-.347-5.507-.467-3.336-.217-6.675-.4-10.013-.586-2.673-.148-5.347-.357-8.022-.394-1.761-.025-3.513-.144-5.27-.2q-2.173-.074-4.346-.121-3.425-.072-6.848-.123c-1.767-.026-3.535-.071-5.3-.048-1.462.019-2.937-.365-4.385.122a15.046,15.046,0,0,0-3.87-.19c-2.491-.046-4.979-.168-7.473-.1-.883.026-1.768-.026-2.652-.016-2.093.024-4.186.066-6.28.095-.52.007-1.04,0-1.559-.018a4.941,4.941,0,0,0-1.07-.068c-1.258.245-2.558-.225-3.8.248-3.063-.441-6.133.1-9.2-.054-1.788-.089-3.593.249-5.388.214-.972-.019-1.921.252-2.855.17-1.953-.171-3.876.152-5.816.163-1.49.008-2.979.216-4.47.321-.07,0-.15-.136-.321-.3a3.022,3.022,0,0,1,.623-.615,12.253,12.253,0,0,1,1.162-.418c1.222-.5,2.7-.446,3.6-1.665.069-.093.317-.036.474-.08a6.979,6.979,0,0,1,2.766-.62c.45-.526,1.431-.15,1.7-1.012.032-.1.245-.184.387-.216a9.819,9.819,0,0,0,3.584-1.679,5.358,5.358,0,0,0,1.771-1.445c.511-.9.649-3.938.019-4.637-.552-.614-.443-1.281-.718-1.889a4.8,4.8,0,0,0-2.183-1.238c-1.372-.138-2.742-.3-4.116-.4-2.162-.164-4.324-.291-6.5-.342-1.695-.04-3.409-.109-5.1-.106-1.882,0-3.769.009-5.651.058-2.751.073-5.5.232-8.246.448-1.63.128-3.248.424-4.867.676a2.249,2.249,0,0,0-.821.386c-.106.069-.128.266-.167.357l.811.246-.029.251-.983-.04c.107.38.17.849.252.853.617.027.584.467.77.879a1.547,1.547,0,0,0,1.384,1.116q1.883-.018,3.767-.057a20.089,20.089,0,0,1,2.99-.053,14.869,14.869,0,0,1,2.894.175.957.957,0,0,0,.809-.055,3.738,3.738,0,0,1,1.829-.066c.707.084,1.436-.178,2.12.157a.821.821,0,0,1,1.254-.1c.39.283.939-.47,1.349.18a.727.727,0,0,0,.7.141c.471-.36.787-.117,1.241.041a1.793,1.793,0,0,0,1.4-.089c.472.619,1.286-.274,1.746.4.38-.419.665-.178,1.068.037.306.163.78.009,1.258-.007-.107.23-.125.35-.176.367-1.222.415-2.444.831-3.673,1.224-2.015.647-4.015,1.342-6.031,1.984q-3.312,1.054-6.521,2.366c-2.074.851-4.159,1.681-6.2,2.6-1.008.454-1.914,1.131-2.9,1.632a4.979,4.979,0,0,0-2.356,2.141c.088.719.328,1.381-.3,2.017-.31.314-.015,1.271.459,1.524.871.468.6,1.734,1.552,2.105a2.22,2.22,0,0,0-.066.283c.01.463.034.925.053,1.4l1.449.193c.287,1.069,1.121.6,1.785.655,1.074.084,2.144-.243,3.177-.158a6.976,6.976,0,0,0,2.684-.25,11.812,11.812,0,0,1,3.426-.546l.628.476a54.937,54.937,0,0,1,5.854-.344c1.323-.014,2.643-.2,3.965-.3a18.4,18.4,0,0,1,3.635-.217c.9.111,1.708-.327,2.513-.143a8.022,8.022,0,0,0,2.521-.17c.215-.016.411-.273.617-.419.888.036,1.8-.03,2.658.042a22.258,22.258,0,0,0,2.7-.21c.9-.028,1.8-.09,2.7-.139a.625.625,0,0,0,.32-.05,4.548,4.548,0,0,1,2.314-.534,14.554,14.554,0,0,1,2.043-.064.52.52,0,0,1,.282.107,3.718,3.718,0,0,0,3.19.308,3.458,3.458,0,0,1,1.117-.157c.377.031.772-.25,1.17-.359a1.844,1.844,0,0,1,1.053.155,4.769,4.769,0,0,0,2.742.224,15.547,15.547,0,0,1,4.135-.245,39.908,39.908,0,0,1,5-.071,7.142,7.142,0,0,1,3.054-.432,2.782,2.782,0,0,1,1.529.191,2.017,2.017,0,0,0,1.96-.07,1.851,1.851,0,0,1,1.061-.268c1.592.092,3.208-.246,4.778.254a1.941,1.941,0,0,0,.585.147c1.938-.024,3.876-.078,5.814-.1,1.562-.016,3.136.127,4.685-.019,2.108-.2,4.254.374,6.332-.341.234-.08.525.028.777-.018,1.506-.273,3.019.972,4.522-.024a.328.328,0,0,1,.3-.008c.821.742,1.808.338,2.717.384,1.708.087,3.42.1,5.131.119,2.133.027,4.266.034,6.4.046,1.464.009,2.943.482,4.392-.135a.507.507,0,0,1,.445.044c.911.858,2.07-.225,3,.4.234-.462.466-.176.775-.063.265.1.669-.165.917-.056.347.153.57.428.942.01.112-.125.541-.093.745.017a3.4,3.4,0,0,0,1.8.325,9.566,9.566,0,0,1,2.14.173c.655.135,1.334-.388,1.987.143.1.084.561-.47.9-.021.362.481.693-.58,1.075-.015.357.528.734-.247.915-.083.692.63,1.5-.018,2.262.313a4.766,4.766,0,0,0,2.01.008l1-1.763-1.122-.431C2629.094,1742.021,2629.1,1741.907,2629.113,1741.792Z" transform="translate(0 0)" fill="#afafaf"/>
    <path id="Контур_20" data-name="Контур 20" d="M2687.825,1783.635l1.232-.377a6.44,6.44,0,0,0-1.068-.456c-.494-.106-1.009-.115-1.512-.187-2.255-.323-4.507-.665-6.765-.97a8.349,8.349,0,0,0-1.7-.03c-.163.012-.308.276-.632.589a15.284,15.284,0,0,1,1.762.184c.89.208,1.848-.017,2.694.437-.414.1-.895.377-1.227.255a10.15,10.15,0,0,0-2.6-.293,20.68,20.68,0,0,0-3.822-.439,3.586,3.586,0,0,1-1.832-.142c-.627-.33-1.261.051-1.829-.269a5.946,5.946,0,0,0-.827-.271,3.324,3.324,0,0,1,.678-.178c1.793.147,3.6.23,5.369.517.42.068.566-.276.8-.189.394.147.71.325.747-.218-2.111-.828-4.4-.172-6.517-.877-.794.293-1.538-.15-2.319-.163-2.7-.043-5.381-.315-8.082-.362a76.827,76.827,0,0,0-8.666.12c-.36.035-.73-.038-1.092-.015a9.748,9.748,0,0,0-3.746.742c-.1.051-.127.266-.244.536l1.294.03c.028.2.058.417.088.635-.7.158-1.634-.278-2.13.825.56.164,1.294-.027,1.379.665.1.784.68,1.205.987,1.85a3.672,3.672,0,0,1,2.265-.88c1.964-.249,3.936-.265,5.907-.336,1.588-.059,3.176-.154,4.765-.181.663-.011,1.328.122,1.993.173.084.007.177-.089.287-.15.043-.2.09-.415.141-.651.15.088.282.12.323.2a2.252,2.252,0,0,1,.127.473,3.373,3.373,0,0,0,.452-.054,10.467,10.467,0,0,1,1.433.031c.612.052,1.362.536,1.692-.463.193.078.391-.239.629.156.348.577,1.512.743,1.6.344.155-.671.7-.378,1.036-.936l.273,1.346c.207-.1.428-.287.652-.289a2.654,2.654,0,0,1,.875.235c.222.081.327.365.692.151a4.335,4.335,0,0,1,1.859.1,1.84,1.84,0,0,0,.925.029c.479-.154.915-.581,1.382-.6a6.111,6.111,0,0,1,1.6.431c.147.037.323-.05.487-.054.071,0,.2.051.208.095.146.927.906.474,1.39.6a5.168,5.168,0,0,0,1.016.083l.153-.863c.6.525,1.489.25,1.689,1.168l.682-.734a2.588,2.588,0,0,0,2.543.908c-.115-.226-.218-.428-.321-.63.427.184.668.673,1,.745.647.141.868-.462,1.075-.96l-.345-.5.783-.161Z" transform="translate(-62.686 -24.014)" fill="#dc322a"/>
    <path id="Контур_21" data-name="Контур 21" d="M2579.389,1775.949c-1.174-.125-2.369-.462-3.527.176a1.722,1.722,0,0,1-.9.015c-.3-.029-.6-.147-.9-.168a19.464,19.464,0,0,0-3.952.059,10.26,10.26,0,0,1-1.876-.016c-.616-.031-1.23-.138-1.845-.144a3.068,3.068,0,0,0-1.8.179c-.458.258-1.21-.006-1.83-.037-.273-.158-.55-.457-.819-.452q-3.41.064-6.818.231a30.935,30.935,0,0,1-4.17.283c-1.177-.1-2.288.283-3.472.13a2.237,2.237,0,0,0-2.245.6c-.3.051-.63.213-.883.129a1.056,1.056,0,0,0-1.132.3,2.57,2.57,0,0,1-1.669.505,3.4,3.4,0,0,0-.957.079c-.2.053-.353.259-.679.516a5.44,5.44,0,0,1,1.281-.058c-.514.882-1.156.2-1.67.374l-.047-.123c.121-.552.121-.552-.371-.987a4.658,4.658,0,0,1-2.456.594c-.139-.021-.444.2-.451.326-.016.359.263.4.567.352.057-.009.129.076.337.209l-1.279.484c.354.536.972.734,1.248.361.394-.532.771-.356,1.211-.335.67.033,1.379-.5,2.007.141.98-.171,2.055.075,2.9-.691.1-.09.5-.028.5-.017.074.95.53.162.79.17a4.071,4.071,0,0,0,2.782-.611c.142-.067.385-.132.476-.061.652.5.859-.321,1.276-.453a2.437,2.437,0,0,0,.137.461c.743-.069,1.51-.373,2.12.394.073.091.457.038.617-.068a1.043,1.043,0,0,1,.8-.144c.944.089,1.917-.153,2.865-.083.629.046.124-.542.442-.568.363.03.632.754,1.083.1.084-.122.416-.073.633-.1.075.786.561.471.845.242.567-.457.859.537,1.458.176a2.178,2.178,0,0,1,1.6-.315c.591.206.96.312,1.393-.215a.88.88,0,0,1,.719-.238c1.111.22,2.263-.053,3.364.368.579.22,1.234-.234,1.878.036.165.069.454-.2.7-.264.128-.035.363-.023.414.056.416.634.873-.212,1.4.064.349.183.986-.181,1.568-.318l.438.331,1.213-.6c.2.228.4.581.5.554.324-.086.564-.427.948-.03.436.45.692-.408,1.125-.227.283.119.723.413.827.323.668-.583,1.6-.153,2.263-.662C2580.265,1776.4,2580.065,1776.021,2579.389,1775.949Z" transform="translate(-18.58 -22.204)" fill="#afafaf"/>
    <path id="Контур_22" data-name="Контур 22" d="M2522.245,1778.754c-.477.032-.953.088-1.426.16-.435.066-.861.2-1.3.247-.469.048-.952-.019-1.416.049s-1.023.475-1.3.315c-.619-.358-.824.307-1.313.318-2.758.063-5.347,1.107-8.044,1.56-.1.016-.157.245-.256.413l1.59-.025c-.178.428-.568.419-.941.5-.2.043-.358.248-.469.33.316.2.708.311.743.49.176.935.425,1.233,1.041.816.539-.365,1.128-.186,1.612-.467,0-.145-.007-.284-.011-.457.332.143.712.447.877.356a10.3,10.3,0,0,1,3.3-.65c1.137-.214,2.292-.332,3.433-.491-.034-.243-.049-.351-.077-.556a1.668,1.668,0,0,0,2.53-.343l.176.961c.344-1.317,1.249-.953,2.065-1.252l-.477-1.15,1.187.171c-.387-.678-.844-.277-1.23-.288-.463-.012-.963.321-1.366-.169.794-.491,1.895-.047,2.807-.891C2523.256,1778.722,2522.75,1778.719,2522.245,1778.754Z" transform="translate(-7.031 -23.447)" fill="#afafaf"/>
  </g>
</svg>
