<svg xmlns="http://www.w3.org/2000/svg" width="181.21" height="39.999" viewBox="0 0 181.21 39.999">
  <g id="Logo_Artwork" data-name="Logo Artwork" transform="translate(-0.039 0.005)">
    <path id="Контур_1" data-name="Контур 1" d="M72.692,19.279h-2.2V14.14H81.876c4.742,0,8.075,2.76,8.075,7.664s-3.582,6.343-3.582,6.343v.066a3.406,3.406,0,0,1,1.468,1.468l1.534,2.936a1.6,1.6,0,0,0,1.666.785h.382v5.139H88.1c-1.7,0-2.658-.308-3.443-1.806L81.8,31.245c-.411-.734-.918-.918-2.2-.918h-.8v8.207h-6.1Zm8.215,5.932c1.806,0,2.76-1.057,2.76-3s-.954-2.936-2.658-2.936h-2.2V25.2Z" transform="translate(-18.732 -3.761)" fill="#212022"/>
    <path id="Контур_2" data-name="Контур 2" d="M109.7,22.9c5.183,0,8.075,3.612,8.075,8.486a15.562,15.562,0,0,1-.139,1.843H106.6a3.906,3.906,0,0,0,4.089,3.135,9.037,9.037,0,0,0,4.838-1.769l2.2,4.118a11.944,11.944,0,0,1-7.5,2.562c-6.277,0-9.646-4.537-9.646-9.206C100.568,26.923,104.04,22.9,109.7,22.9Zm2.283,6.952a2.437,2.437,0,0,0-2.423-2.621c-1.7,0-2.518,1.226-2.826,2.621Z" transform="translate(-26.735 -6.09)" fill="#212022"/>
    <path id="Контур_3" data-name="Контур 3" d="M134.464,20.581c3.546,0,4.6,1.233,4.6,1.233h.066V19.869a.683.683,0,0,0-.734-.734h-1.343V14.18h5.454c1.74,0,2.489.734,2.489,2.489V32.819a.683.683,0,0,0,.734.734h1.292v4.941h-5.249c-1.666,0-2.283-.852-2.283-1.674v-.3h-.066a5.946,5.946,0,0,1-5.08,2.386c-4.772,0-7.906-3.751-7.906-9.206S129.788,20.581,134.464,20.581Zm1.365,13.5c1.769,0,3.443-1.3,3.443-4.331,0-2.114-1.123-4.192-3.443-4.192-1.843,0-3.443,1.468-3.443,4.192S133.781,34.082,135.829,34.082Z" transform="translate(-33.608 -3.772)" fill="#212022"/>
    <path id="Контур_4" data-name="Контур 4" d="M170.652,19.279h-2.2V14.14h11.379c4.742,0,8.075,2.76,8.075,7.664s-3.634,6.372-3.634,6.372v.066a3.406,3.406,0,0,1,1.5,1.468l1.534,2.936a1.6,1.6,0,0,0,1.666.785h.433v5.139h-3.34c-1.7,0-2.658-.308-3.443-1.806l-2.863-5.491c-.411-.734-.918-.918-2.2-.918h-.815v8.178h-6.1Zm8.207,5.932c1.806,0,2.76-1.057,2.76-3s-.954-2.936-2.658-2.936h-2.2V25.2Z" transform="translate(-44.778 -3.761)" fill="#212022"/>
    <path id="Контур_5" data-name="Контур 5" d="M200.648,26.69a.683.683,0,0,0-.734-.734H198.6V21h5.432c1.74,0,2.489.734,2.489,2.489v9.375a.683.683,0,0,0,.734.734h1.292v4.941H203.1c-1.74,0-2.489-.734-2.489-2.489Zm.441-12.48h4.941v4.772H201.1Z" transform="translate(-52.794 -3.78)" fill="#212022"/>
    <path id="Контур_6" data-name="Контур 6" d="M215.931,25.545H213.78v-4.6h2.151v-.411c0-5.755,5.212-6.541,8.039-6.541a13.889,13.889,0,0,1,1.777.1V19.07a6.02,6.02,0,0,0-.954-.073c-1.16,0-2.936.206-2.936,1.71v.235h3.237v4.6h-3.237v12.95h-5.873Z" transform="translate(-56.83 -3.721)" fill="#212022"/>
    <path id="Контур_7" data-name="Контур 7" d="M232.7,26.345H230.45v-4.6h2.415V17h5.726v4.735h3.671v4.6h-3.671v5.689c0,1.975,2.012,2.246,3.135,2.246h.785v5.139a11.255,11.255,0,0,1-1.6.1c-2.8,0-8.215-.734-8.215-6.644Z" transform="translate(-61.262 -4.521)" fill="#212022"/>
    <path id="Контур_8" data-name="Контур 8" d="M29.5,17.814c-.139-.33-.308-.668-.433-1.013-.521-1.387-1.38-2.2-2.988-1.865a4.045,4.045,0,0,1-2.481-.22,10.278,10.278,0,0,0-3.032-.668c-2.136-.279-2.988.374-3.5,2.467a14.8,14.8,0,0,1-.44,1.468,32.242,32.242,0,0,1-2.386,4.933A54.663,54.663,0,0,1,3.784,35.1C2.756,36.115,1.376,37.54.253,38.479c-.492.418-.059.587.543.808l4.485.529,2.07,1.072h4.441l.984.866L16.4,42.3l5.638,1.417,10.828-1.7,1.857-.962,3.839-.191,1.666-1.321,5.139-.565C46.612,38.046,34.206,29.039,29.5,17.814Z" transform="translate(0 -3.72)" fill="#212022"/>
    <path id="Контур_9" data-name="Контур 9" d="M.536,2.7a.433.433,0,0,1-.051-.734A10.035,10.035,0,0,1,3.458.894,22.023,22.023,0,0,1,10.109,0a1.958,1.958,0,0,1,2.2,1.7,2.547,2.547,0,0,0,2.122,2,20.242,20.242,0,0,0,6.688.059A9.242,9.242,0,0,1,24.74,3.9a5.873,5.873,0,0,1,1.16.5c1.395.793,2.364,3.039,1.622,4.4s-2.144.734-3.113.294a14.146,14.146,0,0,0-7.987-.837,10.7,10.7,0,0,1-4.449-.191C10.388,7.641,9.86,6.958,9.984,5.137,10.065,3.955,9.427,3.669,8.67,3.5A29.591,29.591,0,0,0,2.8,3.038,6.115,6.115,0,0,1,.536,2.7Z" transform="translate(-0.071 0)" fill="#212022" opacity="0.2"/>
    <path id="Контур_10" data-name="Контур 10" d="M4.771,8.844a3.142,3.142,0,0,1,2.393.947,1.211,1.211,0,0,1,.345,1.233c-.125.455-.529.573-.954.58-1.468,0-2.885.83-4.368.11-.507-.242-1.057-.47-1.109-1.057s.462-.91.925-1.2a4.86,4.86,0,0,1,2.768-.609Z" transform="translate(-0.275 -2.349)" fill="#212022" opacity="0.2"/>
    <path id="Контур_11" data-name="Контур 11" d="M14.66,14.894a2.327,2.327,0,0,1,1.351.25c.33.228.734.44.609.947s-.529.4-.874.448a9.183,9.183,0,0,1-1.6.169c-.485,0-1.1-.147-1.189-.734s.529-.734.962-.954a2.533,2.533,0,0,1,.741-.125Z" transform="translate(-3.432 -3.957)" fill="#212022" opacity="0.2"/>
    <path id="Контур_12" data-name="Контур 12" d="M18,29.9a30.491,30.491,0,0,0,5.139-10.38c.734-3.054.771-3.025,3.861-2a8.1,8.1,0,0,0,4.309.6.969.969,0,0,1,1.27.844c.793,4.184,3.37,7.341,5.8,10.718-.646-.529-1.321-1.02-1.938-1.586a67.787,67.787,0,0,1-5.308-6.02c-.316-.367-.617-1-1.233-.734-.455.176-.485.734-.573,1.219-.051.257-.11.514-.162.771-.235,1.16-.646,1.432-1.593.47-1.432-1.468-1.7-1.38-2.936.345C22.339,27.382,21.4,28.226,18,29.9Z" transform="translate(-4.775 -4.494)" fill="#dc322a"/>
    <path id="Контур_13" data-name="Контур 13" d="M5.526,45.9l4.03-3.737,3.333-5.344L8.631,40.806,1.07,45.365Z" transform="translate(-0.274 -9.791)" fill="#333"/>
    <path id="Контур_14" data-name="Контур 14" d="M51.029,48.335,47.05,42.11l5.645,4.9Z" transform="translate(-12.499 -11.198)" fill="#333"/>
    <path id="Контур_15" data-name="Контур 15" d="M29.96,51.747l1.41-3.362.852-4.184.477,4.287-.279,2.87Z" transform="translate(-7.955 -11.753)" fill="#333"/>
    <path id="Контур_16" data-name="Контур 16" d="M17.39,50.94l1.7-2.54-.36,2.738Z" transform="translate(-4.613 -12.87)" fill="#333"/>
    <path id="Контур_17" data-name="Контур 17" d="M44.527,51.41l-.059-.793L44.02,49.34l1.138,1.747Z" transform="translate(-11.694 -13.12)" fill="#333"/>
  </g>
</svg>
