<svg xmlns="http://www.w3.org/2000/svg" width="76.796" height="24" viewBox="0 0 76.796 24">
  <g id="Сгруппировать_9" data-name="Сгруппировать 9" transform="translate(-799.106 -247.212)">
    <path id="Контур_32" data-name="Контур 32" d="M799.106,259.176c.716-.686,1.435-1.37,2.149-2.059q2.441-2.362,4.882-4.722a.641.641,0,0,1,.4-.162c.83-.011,1.66-.006,2.49.008a.338.338,0,0,0,.344-.2c.4-.7.81-1.406,1.231-2.1a.592.592,0,0,1,.326-.245q4.634-1.213,9.274-2.408c.1-.026.2-.049.318-.078.223.81.442,1.606.662,2.4q.953,3.454,1.911,6.906a.5.5,0,0,1-.061.435c-.423.692-.832,1.393-1.258,2.084a.3.3,0,0,0,0,.37q.643,1.049,1.262,2.111a.517.517,0,0,1,.055.355q-1.249,4.566-2.515,9.127c-.018.065-.046.127-.074.209l-2.611-.682q-3.47-.907-6.941-1.811a.54.54,0,0,1-.373-.275c-.389-.682-.8-1.354-1.183-2.038a.412.412,0,0,0-.422-.248c-.8.018-1.609.009-2.413.022a.581.581,0,0,1-.454-.182q-3.418-3.328-6.846-6.645a1.993,1.993,0,0,0-.159-.126Zm20,7.257c.691-2.4,1.37-4.754,2.04-7.107a.633.633,0,0,0-.024-.326q-.822-2.885-1.652-5.766c-.118-.407-.234-.814-.365-1.266-.062.1-.1.142-.127.192q-2.047,3.434-4.1,6.867a.309.309,0,0,0,.014.37q2.033,3.4,4.058,6.8C818.992,266.262,819.036,266.324,819.108,266.433ZM817,267.609c-.06-.117-.084-.17-.114-.221q-2.039-3.425-4.075-6.851a.349.349,0,0,0-.362-.17q-4.032,0-8.065,0h-.3c.1.108.161.176.226.24q2.5,2.471,5,4.935a1.052,1.052,0,0,0,.457.258c1.781.454,3.565.9,5.348,1.342C815.716,267.3,816.326,267.443,817,267.609Zm-.022-16.828c-.072.01-.114.013-.154.022q-3.593.9-7.185,1.8a.661.661,0,0,0-.281.169q-2.572,2.526-5.135,5.058c-.044.043-.078.1-.146.181h.307q4.008,0,8.017,0a.429.429,0,0,0,.427-.244q2-3.376,4.013-6.742C816.886,250.955,816.924,250.881,816.979,250.781Z" fill="#afafaf"/>
    <path id="Контур_33" data-name="Контур 33" d="M871.74,270.865v-2.28h.686c.167,0,.335,0,.5-.007a1.348,1.348,0,0,0,1.426-1.648,9.1,9.1,0,0,0-.474-1.851c-1.041-2.813-2.112-5.616-3.172-8.422-.035-.09-.066-.182-.115-.317h1.136c.484,0,.967.01,1.451,0a.327.327,0,0,1,.381.26c.795,2.326,1.767,4.591,2.376,6.981a1.016,1.016,0,0,0,.078.136c.049-.193.079-.335.121-.474q.861-2.822,1.725-5.641c.107-.349.213-.7.339-1.038a.309.309,0,0,1,.214-.178c.887-.013,1.773-.008,2.686-.008a1.038,1.038,0,0,1-.026.185c-1.337,3.867-2.665,7.738-4.024,11.6a7.136,7.136,0,0,1-.813,1.564,2.753,2.753,0,0,1-2.326,1.14C873.194,270.892,872.475,270.865,871.74,270.865Z" transform="translate(-5.197 -3.07)" fill="#afafaf"/>
    <path id="Контур_34" data-name="Контур 34" d="M835.2,256.351h2.681v.356q0,3.118,0,6.236a3.794,3.794,0,0,0,.043.706,1.874,1.874,0,0,0,2.245,1.475,2.165,2.165,0,0,0,1.921-2.254c.034-.549.026-1.1.026-1.653,0-1.507,0-3.014,0-4.522v-.336h2.66v10.926h-2.549v-1.322c-.113.12-.171.175-.22.236a4.073,4.073,0,0,1-5.309.759,3.507,3.507,0,0,1-1.455-2.659,9.447,9.447,0,0,1-.044-1q-.005-3.282,0-6.562Z" transform="translate(-1.853 -3.072)" fill="#afafaf"/>
    <path id="Контур_35" data-name="Контур 35" d="M849.9,267.228h-2.659v-10.9h2.6v1.423l.058.019c.068-.089.137-.177.2-.266a3.7,3.7,0,0,1,4.055-1.367,3.559,3.559,0,0,1,2.678,3.05,6.636,6.636,0,0,1,.071.97c.006,2.265,0,4.53,0,6.8v.3H854.24v-.35q0-3.087,0-6.175a1.929,1.929,0,0,0-1.765-2.181,2.177,2.177,0,0,0-2.5,1.786,4.436,4.436,0,0,0-.075.88c-.006,1.881,0,3.763,0,5.644Z" transform="translate(-2.989 -3.042)" fill="#afafaf"/>
    <path id="Контур_36" data-name="Контур 36" d="M869.193,264.814v2.156c-.367,0-.726.009-1.086,0a8.852,8.852,0,0,1-1.206-.076,2.347,2.347,0,0,1-2.136-2.537c-.008-2.008,0-4.017,0-6.026v-.385h-1.479v-1.925h1.474v-3.374h2.675v3.395h1.7v1.908h-1.678c-.006.13-.016.233-.016.336q0,2.659,0,5.318a2.829,2.829,0,0,0,.024.382.859.859,0,0,0,.9.828C868.63,264.824,868.9,264.814,869.193,264.814Z" transform="translate(-4.556 -2.747)" fill="#afafaf"/>
    <path id="Контур_37" data-name="Контур 37" d="M859.46,256.355h2.63v10.9h-2.63Z" transform="translate(-4.102 -3.072)" fill="#afafaf"/>
    <path id="Контур_38" data-name="Контур 38" d="M859.448,254.782v-2.135h2.638v2.135Z" transform="translate(-4.101 -2.747)" fill="#afafaf"/>
  </g>
</svg>
