<svg xmlns="http://www.w3.org/2000/svg" width="76" height="24" viewBox="0 0 76 24">
  <g id="Сгруппировать_7" data-name="Сгруппировать 7" transform="translate(-1012.317 -851.533)">
    <g id="g3069" transform="translate(1039.058 859.23)">
      <path id="path3021" d="M1045.826,862.359v5.5a3.487,3.487,0,0,0,3.739,3.655,3.523,3.523,0,0,0,3.758-3.806v-5.347h-1.973v5.247c0,1.258-.633,2.036-1.764,2.036a1.734,1.734,0,0,1-1.786-1.936v-5.347Z" transform="translate(-1045.826 -862.272)" fill="#afafaf"/>
      <path id="path3023" d="M1053.557,862.428v8.989h3.144c1.74,0,3.22-.888,3.22-2.649a2.257,2.257,0,0,0-1.609-2.245,1.84,1.84,0,0,0,1.191-1.9c0-1.572-1.505-2.191-2.8-2.191Zm1.989,1.707h.954c.663,0,1.086.349,1.086.956a.929.929,0,0,1-1.036.953h-1Zm0,3.314h1.054c.992,0,1.336.51,1.336,1.118,0,.707-.445,1.121-1.235,1.121h-1.155Z" transform="translate(-1045.101 -862.265)" fill="#afafaf"/>
      <path id="path3025" d="M1060.058,862.428h1.983v8.988h-1.983Z" transform="translate(-1044.492 -862.265)" fill="#afafaf"/>
      <path id="path3027" d="M1080.014,871.416h-1.984v-8.988h6.227v1.857h-4.243v2.06h3.867v1.506h-3.867Z" transform="translate(-1042.806 -862.265)" fill="#afafaf"/>
      <path id="path3029" d="M1084.389,862.428v1.857h2.56v7.13h2.008v-7.13h2.511v-1.857Z" transform="translate(-1042.21 -862.265)" fill="#afafaf"/>
      <path id="path3031" d="M1064.076,868.441l-1.575,1.152s.544,1.992,3.274,1.992a2.859,2.859,0,0,0,3.156-2.926c0-3.006-4.2-2.368-4.2-3.914,0-.407.361-.766,1.029-.766a1.684,1.684,0,0,1,1.478,1.05l1.576-1.106a2.991,2.991,0,0,0-2.975-1.641,2.663,2.663,0,0,0-2.969,2.528c0,3.063,4.08,2.4,4.08,4.005a.969.969,0,0,1-1.093.936,1.994,1.994,0,0,1-1.777-1.311Z" transform="translate(-1044.262 -862.279)" fill="#afafaf"/>
      <path id="path3033" d="M1073.454,862.279a4.421,4.421,0,0,0-3.376,1.268l.3.3a4.219,4.219,0,0,0-1.51,3.378,4.323,4.323,0,0,0,4.6,4.356,4.469,4.469,0,0,0,4.647-4.647A4.525,4.525,0,0,0,1073.454,862.279Zm.042,1.866a2.8,2.8,0,0,1,0,5.582,2.481,2.481,0,0,1-2.613-2.563,2.292,2.292,0,0,1,.9-1.91l-.327-.326A2.816,2.816,0,0,1,1073.5,864.145Z" transform="translate(-1043.666 -862.279)" fill="#afafaf"/>
    </g>
    <path id="path3049" d="M1023.2,851.533c-7.45,0-10.666,6.632-10.666,6.632l.946.678a11.956,11.956,0,0,0-1.158,5.171,11.6,11.6,0,0,0,23.2.014,12.085,12.085,0,0,0-12.325-12.5Zm.065,2.023A10.268,10.268,0,0,1,1033.6,863.7a9.467,9.467,0,0,1-9.415,9.8,6.924,6.924,0,0,1-7.093-6.733,5.367,5.367,0,0,1,2.534-4.652l.2.213a5.882,5.882,0,0,0-1.412,3.616,5.169,5.169,0,0,0,5.429,5.184c3.855,0,6.427-3.288,6.427-7.106a8.531,8.531,0,0,0-8.639-8.214,10.246,10.246,0,0,0-6.1,2.114l-.2-.18a9.3,9.3,0,0,1,7.931-4.188Zm-1.737,4.25a6.922,6.922,0,0,1,6.685,4.82l-.267.1a7.712,7.712,0,0,0-6.026-3.182c-4.691,0-7.155,4.263-6.794,7.823l-.276.1a6.754,6.754,0,0,1-.518-2.5,7.2,7.2,0,0,1,7.2-7.165Zm1.99,4.927a2.557,2.557,0,0,1,2.566,2.527,2.6,2.6,0,0,1-.729,1.808l.863.6a3.209,3.209,0,0,1-2.6,1.343,3.142,3.142,0,0,1-.1-6.282Z" transform="translate(0)" fill="#afafaf"/>
  </g>
</svg>
